<?xml version="1.0" encoding="utf-8"?>
<!-- Generator: Adobe Illustrator 26.3.1, SVG Export Plug-In . SVG Version: 6.00 Build 0)  -->
<svg version="1.1" id="Layer_1" xmlns="http://www.w3.org/2000/svg" xmlns:xlink="http://www.w3.org/1999/xlink" x="0px" y="0px"
	 viewBox="0 0 30 26" style="enable-background:new 0 0 30 26;" xml:space="preserve">
<style type="text/css">
	.st0{fill:none;stroke:#20201F;stroke-width:2;stroke-linecap:round;stroke-linejoin:round;}
</style>
<path class="st0" d="M4,25c1.7,0,3-1.3,3-3s-1.3-3-3-3s-3,1.3-3,3S2.3,25,4,25z"/>
<path class="st0" d="M11,12c1.7,0,3-1.3,3-3s-1.3-3-3-3S8,7.3,8,9S9.3,12,11,12z"/>
<path class="st0" d="M19,20c1.7,0,3-1.3,3-3s-1.3-3-3-3s-3,1.3-3,3S17.3,20,19,20z"/>
<path class="st0" d="M26,7c1.7,0,3-1.3,3-3s-1.3-3-3-3s-3,1.3-3,3S24.3,7,26,7z"/>
<path class="st0" d="M9.6,11.6l-4.1,7.7"/>
<path class="st0" d="M16.9,14.9l-3.8-3.8"/>
<path class="st0" d="M24.6,6.6l-4.2,7.7"/>
</svg>
