<?xml version="1.0" encoding="utf-8"?>
<!-- Generator: Adobe Illustrator 26.3.1, SVG Export Plug-In . SVG Version: 6.00 Build 0)  -->
<svg version="1.1" id="Layer_1" xmlns="http://www.w3.org/2000/svg" xmlns:xlink="http://www.w3.org/1999/xlink" x="0px" y="0px"
	 viewBox="0 0 31.9 20.8" style="enable-background:new 0 0 31.9 20.8;" xml:space="preserve">
<style type="text/css">
	.st0{fill:none;stroke:#20201F;stroke-width:2;stroke-miterlimit:10;}
	.st1{fill:none;stroke:#20201F;stroke-width:2;stroke-linecap:round;stroke-linejoin:round;}
</style>
<path class="st0" d="M10.6,14.8c3.8,0,6.9-3.1,6.9-6.9c0-3.8-3.1-6.9-6.9-6.9C6.7,1,3.7,4.1,3.7,7.9C3.7,11.7,6.7,14.8,10.6,14.8z"
	/>
<path class="st1" d="M19.5,1.3C20.1,1.1,20.8,1,21.4,1c1.8,0,3.6,0.7,4.9,2c1.3,1.3,2,3.1,2,4.9c0,1.8-0.7,3.6-2,4.9
	c-1.3,1.3-3.1,2-4.9,2"/>
<path class="st1" d="M1,19.8c1.1-1.5,2.5-2.8,4.2-3.7c1.7-0.9,3.5-1.3,5.4-1.3c1.9,0,3.7,0.5,5.4,1.3c1.7,0.9,3.1,2.1,4.2,3.7"/>
<path class="st1" d="M21.4,14.8c1.9,0,3.7,0.4,5.4,1.3c1.7,0.9,3.1,2.1,4.2,3.7"/>
</svg>
