<?xml version="1.0" encoding="utf-8"?>
<!-- Generator: Adobe Illustrator 26.3.1, SVG Export Plug-In . SVG Version: 6.00 Build 0)  -->
<svg version="1.1" id="Layer_1" xmlns="http://www.w3.org/2000/svg" xmlns:xlink="http://www.w3.org/1999/xlink" x="0px" y="0px"
	 viewBox="0 0 25.9 25.2" style="enable-background:new 0 0 25.9 25.2;" xml:space="preserve">
<style type="text/css">
	.st0{fill:none;stroke:#20201F;stroke-width:2;stroke-linecap:round;stroke-linejoin:round;}
</style>
<path class="st0" d="M3.9,19.5C5,17.4,5.5,15,5.5,12.6c0-1.2,0.3-2.3,0.8-3.4c0.5-1,1.2-2,2.1-2.7"/>
<path class="st0" d="M13.3,12.6c0,3.9-1,7.8-2.9,11.3"/>
<path class="st0" d="M9.4,12.6c0-1,0.4-2,1.1-2.7s1.7-1.1,2.7-1.1s2,0.4,2.7,1.1s1.1,1.7,1.1,2.7c0,4-0.9,7.9-2.6,11.6"/>
<path class="st0" d="M24.3,19.4c0.4-2.2,0.7-4.5,0.7-6.8c0-3.1-1.2-6-3.4-8.2S16.4,1,13.3,1s-6,1.2-8.2,3.4s-3.4,5.1-3.4,8.2
	c0,1.3-0.2,2.6-0.7,3.9"/>
<path class="st0" d="M9,16.5c-0.4,2-1.2,4-2.2,5.8"/>
<path class="st0" d="M12.3,4.9c0.3,0,0.6-0.1,1-0.1c2.1,0,4,0.8,5.5,2.3c1.5,1.5,2.3,3.4,2.3,5.5c0,1.3-0.1,2.6-0.2,3.9"/>
<path class="st0" d="M20.1,20.4c-0.2,0.7-0.4,1.4-0.6,2.1"/>
</svg>
