<?xml version="1.0" encoding="utf-8"?>
<!-- Generator: Adobe Illustrator 26.3.1, SVG Export Plug-In . SVG Version: 6.00 Build 0)  -->
<svg version="1.1" id="Layer_1" xmlns="http://www.w3.org/2000/svg" xmlns:xlink="http://www.w3.org/1999/xlink" x="0px" y="0px"
	 viewBox="0 0 40 40" style="enable-background:new 0 0 40 40;" xml:space="preserve">
<style type="text/css">
	.st0{fill:#FFFFFF;}
	.st1{fill:none;stroke:#000000;stroke-width:1.7344;stroke-linecap:round;stroke-linejoin:round;}
</style>
<path class="st0" d="M20,0C9,0,0,9,0,20c0,11,9,20,20,20c11,0,20-9,20-20C40,9,31,0,20,0z"/>
<path class="st1" d="M10.8,13.8h19.5v12.7c0,0.2-0.1,0.4-0.2,0.5c-0.2,0.1-0.4,0.2-0.6,0.2H11.6c-0.2,0-0.4-0.1-0.6-0.2
	c-0.2-0.1-0.2-0.3-0.2-0.5V13.8z"/>
<path class="st1" d="M30.2,13.8L20.5,22l-9.8-8.2"/>
</svg>
