<svg width="40" height="40" viewBox="0 0 40 40" fill="none" xmlns="http://www.w3.org/2000/svg">
<path d="M20 0C8.95375 0 0 8.95375 0 20C0 31.045 8.95375 40 20 40C31.0462 40 40 31.045 40 20C40 8.95375 31.0462 0 20 0Z" fill="white"/>
<path d="M31.222 14.1649C30.4809 14.4943 29.6833 14.7165 28.8464 14.816C29.7009 14.3044 30.3561 13.4942 30.665 12.5276C29.8658 13.0019 28.9811 13.346 28.0386 13.5318C27.2844 12.7281 26.2094 12.2256 25.0198 12.2256C22.736 12.2256 20.8842 14.0773 20.8842 16.3616C20.8842 16.6853 20.9206 17.0008 20.9914 17.304C17.554 17.1313 14.5061 15.485 12.4661 12.9826C12.1101 13.5932 11.9063 14.3036 11.9063 15.0623C11.9063 16.497 12.6364 17.7632 13.7462 18.5047C13.0685 18.483 12.4305 18.2968 11.8728 17.987C11.8723 18.0042 11.8723 18.0218 11.8723 18.0394C11.8723 20.0429 13.2981 21.7142 15.1903 22.0948C14.8433 22.1889 14.4779 22.2396 14.1006 22.2396C13.8337 22.2396 13.5747 22.2139 13.3222 22.1652C13.8489 23.8082 15.3761 25.0043 17.1857 25.0375C15.7702 26.1469 13.9872 26.8082 12.0491 26.8082C11.7156 26.8082 11.3862 26.7886 11.0625 26.7501C12.8934 27.9241 15.0671 28.6084 17.4026 28.6084C25.0104 28.6084 29.1701 22.3063 29.1701 16.8408C29.1701 16.6615 29.1665 16.4827 29.1587 16.3051C29.9665 15.7232 30.6679 14.9944 31.222 14.1649Z" fill="#20201F"/>
</svg>
