<svg width="123" height="110" viewBox="0 0 123 110" fill="none" xmlns="http://www.w3.org/2000/svg">
<path d="M25.4034 105C26.5394 105 27.4514 104.712 28.1234 104.136C28.8114 103.544 29.1474 102.776 29.1474 101.8C29.1474 100.472 28.4594 99.432 27.1794 99.048V98.92C28.2194 98.488 28.8434 97.512 28.8434 96.296C28.8434 94.52 27.5314 93.336 25.4194 93.336H20.0434V105H25.4034ZM21.7554 94.76H25.0674C26.2674 94.76 27.0514 95.432 27.0514 96.536C27.0514 97.672 26.2994 98.344 25.0674 98.344H21.7554V94.76ZM21.7554 99.736H25.1154C26.4434 99.736 27.3074 100.376 27.3074 101.64C27.3074 102.856 26.5394 103.576 25.1154 103.576H21.7554V99.736ZM30.5381 102.696C30.5381 104.168 31.6421 105.16 33.3061 105.16C34.6021 105.16 35.7061 104.552 36.0421 103.64H36.1541C36.1701 104.616 36.6661 105.112 37.6421 105.112C37.9141 105.112 38.1861 105.064 38.4741 104.984V103.768C38.4101 103.784 38.3141 103.8 38.1861 103.8C37.8501 103.8 37.6901 103.592 37.6901 103.176V99.48C37.6901 97.576 36.5381 96.424 34.3621 96.424C33.3861 96.424 32.5701 96.664 31.9301 97.16C31.3061 97.64 30.9541 98.28 30.8901 99.096H32.4901C32.5381 98.264 33.2261 97.736 34.2981 97.736C35.4661 97.736 36.0581 98.28 36.0581 99.384V99.976H33.8981C31.8341 99.976 30.5381 100.952 30.5381 102.696ZM32.2181 102.504C32.2181 101.576 32.8421 101.112 34.0741 101.112H36.0581V101.512C36.0581 102.872 35.1461 103.832 33.7541 103.832C32.8101 103.832 32.2181 103.352 32.2181 102.504ZM45.8074 102.072C45.6794 103.08 44.8794 103.736 43.7274 103.736C42.2714 103.736 41.3594 102.696 41.3594 100.824C41.3594 99.016 42.2074 97.864 43.7434 97.864C44.7674 97.864 45.5674 98.392 45.7754 99.416H47.4394C47.3594 98.52 46.9754 97.8 46.2874 97.256C45.6154 96.696 44.7834 96.424 43.7754 96.424C42.5274 96.424 41.5354 96.824 40.7834 97.624C40.0474 98.424 39.6794 99.48 39.6794 100.808C39.6794 102.12 40.0474 103.176 40.7834 103.976C41.5194 104.76 42.4954 105.16 43.7274 105.16C44.7674 105.16 45.6474 104.872 46.3354 104.312C47.0234 103.752 47.4074 103 47.4874 102.072H45.8074ZM56.9183 105L53.5263 99.88L56.7583 96.584H54.6623L51.0303 100.344V93.224H49.3663V105H51.0303V102.424L52.3903 101.032L55.0143 105H56.9183ZM60.9967 97.96H62.4047V102.648C62.4047 104.296 63.1887 105.128 64.7567 105.128C65.1567 105.128 65.5567 105.08 65.9247 105V103.656C65.7647 103.704 65.5247 103.736 65.1887 103.736C64.2767 103.736 64.0687 103.256 64.0687 102.472V97.96H65.9247V96.584H64.0687V93.528L62.4047 94.168V96.584H60.9967V97.96ZM66.9607 100.824C66.9607 102.104 67.3287 103.144 68.0807 103.96C68.8327 104.76 69.8247 105.16 71.0407 105.16C72.2567 105.16 73.2327 104.76 73.9847 103.96C74.7367 103.144 75.1207 102.104 75.1207 100.808C75.1207 99.512 74.7367 98.456 73.9847 97.64C73.2327 96.824 72.2567 96.424 71.0407 96.424C69.8247 96.424 68.8327 96.84 68.0807 97.656C67.3287 98.472 66.9607 99.528 66.9607 100.824ZM68.6407 100.808C68.6407 99 69.5687 97.864 71.0407 97.864C72.5287 97.864 73.4247 99 73.4247 100.792C73.4247 102.6 72.5127 103.72 71.0407 103.72C69.5527 103.72 68.6407 102.584 68.6407 100.808ZM79.5904 97.96H80.9984V102.648C80.9984 104.296 81.7824 105.128 83.3504 105.128C83.7504 105.128 84.1504 105.08 84.5184 105V103.656C84.3584 103.704 84.1184 103.736 83.7824 103.736C82.8704 103.736 82.6624 103.256 82.6624 102.472V97.96H84.5184V96.584H82.6624V93.528L80.9984 94.168V96.584H79.5904V97.96ZM85.5544 100.824C85.5544 102.104 85.9224 103.144 86.6744 103.96C87.4264 104.76 88.4184 105.16 89.6344 105.16C90.8504 105.16 91.8264 104.76 92.5784 103.96C93.3304 103.144 93.7144 102.104 93.7144 100.808C93.7144 99.512 93.3304 98.456 92.5784 97.64C91.8264 96.824 90.8504 96.424 89.6344 96.424C88.4184 96.424 87.4264 96.84 86.6744 97.656C85.9224 98.472 85.5544 99.528 85.5544 100.824ZM87.2344 100.808C87.2344 99 88.1624 97.864 89.6344 97.864C91.1224 97.864 92.0184 99 92.0184 100.792C92.0184 102.6 91.1064 103.72 89.6344 103.72C88.1464 103.72 87.2344 102.584 87.2344 100.808ZM95.6476 107.672H97.2956V103.448H97.4076C97.8396 104.488 98.8956 105.16 100.24 105.16C101.328 105.16 102.192 104.76 102.848 103.976C103.504 103.192 103.84 102.12 103.84 100.76C103.84 99.432 103.52 98.392 102.88 97.608C102.24 96.824 101.376 96.424 100.272 96.424C98.9276 96.424 97.8556 97.096 97.4076 98.104H97.2956L97.1356 96.584H95.6476V107.672ZM97.2956 100.328C97.2956 99.624 97.5356 99.032 97.9996 98.568C98.4636 98.104 99.0556 97.864 99.7756 97.864C101.232 97.864 102.144 98.904 102.144 100.76C102.144 102.568 101.264 103.736 99.7436 103.736C99.0236 103.736 98.4476 103.512 97.9836 103.048C97.5196 102.584 97.2956 101.992 97.2956 101.272V100.328Z" fill="#9900FF"/>
<circle cx="61" cy="39" r="38" stroke="#9900FF" stroke-width="2"/>
<path d="M61.4033 50.8078L61.4033 28" stroke="#9900FF" stroke-width="2" stroke-linecap="round"/>
<path d="M51.5957 37.8078L61.4035 28L71.2114 37.8078" stroke="#9900FF" stroke-width="2" stroke-linecap="round"/>
</svg>
