<svg width="291" height="62" viewBox="0 0 291 62" fill="none" xmlns="http://www.w3.org/2000/svg">
<rect width="291" height="62" rx="31" fill="#9900FF"/>
<path d="M30.232 37.66C33.016 37.66 34.776 36.332 34.776 34.14C34.776 31.916 33.032 31.164 31.64 30.876L29.64 30.476C28.904 30.316 27.704 30.028 27.704 28.78C27.704 27.756 28.552 27.1 30.008 27.1C31.48 27.1 32.488 27.692 32.568 29.084H34.376C34.344 27.036 32.84 25.676 30.12 25.676C27.48 25.676 25.832 27.004 25.832 29.004C25.832 31.404 28.072 31.948 29.256 32.172L31.16 32.572C31.656 32.7 32.888 32.956 32.888 34.3C32.888 35.468 31.912 36.236 30.248 36.236C28.408 36.236 27.448 35.42 27.4 33.884H25.56C25.592 36.092 27.112 37.66 30.232 37.66ZM40.172 37.66C42.252 37.66 43.788 36.444 43.932 34.572H42.236C42.124 35.548 41.324 36.204 40.172 36.204C38.748 36.204 37.836 35.212 37.836 33.308C37.836 31.58 38.62 30.396 40.188 30.396C41.148 30.396 41.98 30.876 42.204 31.916H43.884C43.74 30.156 42.268 28.924 40.236 28.924C37.692 28.924 36.108 30.684 36.108 33.292C36.108 35.948 37.692 37.66 40.172 37.66ZM45.6368 37.5H47.3328V32.988C47.3328 31.388 48.1808 30.364 49.5568 30.364C50.8368 30.364 51.4288 31.1 51.4288 32.636V37.5H53.1248V32.316C53.1248 29.948 51.8768 28.924 50.1168 28.924C48.8528 28.924 47.8608 29.516 47.4448 30.588H47.3328V25.836H45.6368V37.5ZM58.9068 37.66C60.9068 37.66 62.4427 36.556 62.6828 34.924H61.0348C60.8428 35.708 60.0428 36.252 58.9068 36.252C57.5148 36.252 56.6028 35.34 56.5388 33.66H62.6028C62.6508 33.436 62.6828 33.084 62.6828 32.7C62.6828 30.428 61.2108 28.924 58.9227 28.924C56.4108 28.924 54.8268 30.668 54.8268 33.324C54.8268 35.948 56.3788 37.66 58.9068 37.66ZM56.5868 32.46C56.7468 31.132 57.6428 30.348 58.8588 30.348C60.1388 30.348 60.9548 31.084 60.9708 32.46H56.5868ZM67.4089 37.644C68.7209 37.644 69.8249 36.972 70.2249 35.964H70.3529L70.4329 37.5H72.0329V25.836H70.3529V30.604H70.2249C69.8249 29.58 68.7209 28.924 67.4089 28.924C65.3129 28.924 63.9049 30.428 63.9049 33.292C63.9049 36.124 65.3129 37.644 67.4089 37.644ZM67.9529 36.204C66.5609 36.204 65.6329 35.292 65.6329 33.292C65.6329 31.276 66.5609 30.364 67.9529 30.364C69.3769 30.364 70.3369 31.388 70.3369 32.78V33.788C70.3369 35.18 69.3769 36.204 67.9529 36.204ZM77.2671 37.66C78.4991 37.66 79.4911 37.052 79.8911 35.98H80.0031L80.0831 37.5H81.6991V29.084H80.0191V33.612C80.0191 35.196 79.1711 36.204 77.8271 36.204C76.5631 36.204 75.9871 35.468 75.9871 33.932V29.084H74.2911V34.316C74.2911 36.54 75.4111 37.66 77.2671 37.66ZM84.0274 37.5H85.7074V25.836H84.0274V37.5ZM91.563 37.66C93.563 37.66 95.099 36.556 95.339 34.924H93.691C93.499 35.708 92.699 36.252 91.563 36.252C90.171 36.252 89.259 35.34 89.195 33.66H95.259C95.307 33.436 95.339 33.084 95.339 32.7C95.339 30.428 93.867 28.924 91.579 28.924C89.067 28.924 87.483 30.668 87.483 33.324C87.483 35.948 89.035 37.66 91.563 37.66ZM89.243 32.46C89.403 31.132 90.299 30.348 91.515 30.348C92.795 30.348 93.611 31.084 93.627 32.46H89.243ZM102.938 37.66C104.186 37.66 105.274 37.084 105.61 36.188H105.706V36.3C105.706 37.212 106.234 37.66 107.146 37.66C107.482 37.66 107.882 37.58 108.138 37.404V36.236C108.01 36.364 107.818 36.412 107.658 36.412C107.402 36.412 107.274 36.252 107.274 35.868V31.948C107.274 29.916 105.962 28.924 103.882 28.924C101.786 28.924 100.362 29.916 100.362 31.66H101.978C101.978 30.892 102.57 30.364 103.802 30.364C105.05 30.364 105.578 30.972 105.578 31.9V32.572H103.322C101.338 32.572 100.09 33.5 100.09 35.228C100.09 36.7 101.226 37.66 102.938 37.66ZM103.498 36.284C102.41 36.284 101.85 35.836 101.85 35.02C101.85 34.06 102.522 33.724 103.498 33.724H105.578V34.604C105.578 35.452 104.874 36.284 103.498 36.284ZM113.168 40.172H114.864V35.98H114.976C115.392 36.988 116.48 37.66 117.792 37.66C119.888 37.66 121.296 36.14 121.296 33.308C121.296 30.444 119.888 28.924 117.792 28.924C116.48 28.924 115.392 29.596 114.976 30.604H114.864L114.816 29.084H113.168V40.172ZM117.248 36.204C115.824 36.204 114.88 35.18 114.88 33.788V32.796C114.88 31.404 115.824 30.38 117.248 30.38C118.64 30.38 119.568 31.292 119.568 33.308C119.568 35.308 118.64 36.204 117.248 36.204ZM126.594 37.66C128.594 37.66 130.13 36.556 130.37 34.924H128.722C128.53 35.708 127.73 36.252 126.594 36.252C125.202 36.252 124.29 35.34 124.226 33.66H130.29C130.338 33.436 130.37 33.084 130.37 32.7C130.37 30.428 128.898 28.924 126.61 28.924C124.098 28.924 122.514 30.668 122.514 33.324C122.514 35.948 124.066 37.66 126.594 37.66ZM124.274 32.46C124.434 31.132 125.33 30.348 126.546 30.348C127.826 30.348 128.642 31.084 128.658 32.46H124.274ZM132.152 37.5H133.848V33.516C133.848 31.532 134.968 30.604 136.392 30.604C136.616 30.604 136.824 30.636 137.016 30.7V29.052C136.84 28.988 136.632 28.956 136.36 28.956C135.192 28.956 134.296 29.564 133.864 30.7H133.784L133.672 29.084H132.152V37.5ZM141.19 37.66C143.254 37.66 144.662 36.668 144.662 35.084C144.662 33.868 144.038 33.004 142.406 32.7L140.838 32.428C140.406 32.348 139.574 32.204 139.574 31.324C139.574 30.636 140.134 30.204 141.158 30.204C142.15 30.204 142.774 30.62 142.822 31.516H144.454C144.438 29.98 143.206 28.924 141.174 28.924C139.19 28.924 137.878 29.9 137.878 31.5C137.878 32.604 138.47 33.468 140.15 33.772L141.846 34.108C142.262 34.188 142.918 34.364 142.918 35.148C142.918 35.916 142.278 36.396 141.222 36.396C140.038 36.396 139.334 35.836 139.334 34.924H137.67C137.67 36.556 138.998 37.66 141.19 37.66ZM145.874 33.308C145.874 35.964 147.522 37.66 149.97 37.66C152.498 37.66 154.05 35.884 154.05 33.308C154.05 30.652 152.434 28.924 149.97 28.924C147.458 28.924 145.874 30.732 145.874 33.308ZM147.602 33.308C147.602 31.388 148.546 30.396 149.97 30.396C151.49 30.396 152.338 31.484 152.338 33.292C152.338 35.196 151.394 36.204 149.97 36.204C148.45 36.204 147.602 35.116 147.602 33.308ZM155.824 37.5H157.52V32.988C157.52 31.388 158.368 30.38 159.744 30.38C161.024 30.38 161.616 31.116 161.616 32.652V37.5H163.312V32.332C163.312 29.948 162.064 28.924 160.304 28.924C159.04 28.924 158.048 29.532 157.632 30.604H157.52L157.44 29.084H155.824V37.5ZM167.75 37.66C168.998 37.66 170.086 37.084 170.422 36.188H170.518V36.3C170.518 37.212 171.046 37.66 171.958 37.66C172.294 37.66 172.694 37.58 172.95 37.404V36.236C172.822 36.364 172.63 36.412 172.47 36.412C172.214 36.412 172.086 36.252 172.086 35.868V31.948C172.086 29.916 170.774 28.924 168.694 28.924C166.598 28.924 165.174 29.916 165.174 31.66H166.79C166.79 30.892 167.382 30.364 168.614 30.364C169.862 30.364 170.39 30.972 170.39 31.9V32.572H168.134C166.15 32.572 164.902 33.5 164.902 35.228C164.902 36.7 166.038 37.66 167.75 37.66ZM168.31 36.284C167.222 36.284 166.662 35.836 166.662 35.02C166.662 34.06 167.334 33.724 168.31 33.724H170.39V34.604C170.39 35.452 169.686 36.284 168.31 36.284ZM174.34 37.5H176.02V25.836H174.34V37.5ZM184.94 37.644C186.252 37.644 187.356 36.972 187.756 35.964H187.884L187.964 37.5H189.564V25.836H187.884V30.604H187.756C187.356 29.58 186.252 28.924 184.94 28.924C182.844 28.924 181.436 30.428 181.436 33.292C181.436 36.124 182.844 37.644 184.94 37.644ZM185.484 36.204C184.092 36.204 183.164 35.292 183.164 33.292C183.164 31.276 184.092 30.364 185.484 30.364C186.908 30.364 187.868 31.388 187.868 32.78V33.788C187.868 35.18 186.908 36.204 185.484 36.204ZM195.422 37.66C197.422 37.66 198.958 36.556 199.198 34.924H197.55C197.358 35.708 196.558 36.252 195.422 36.252C194.03 36.252 193.118 35.34 193.054 33.66H199.118C199.166 33.436 199.198 33.084 199.198 32.7C199.198 30.428 197.726 28.924 195.438 28.924C192.926 28.924 191.342 30.668 191.342 33.324C191.342 35.948 192.894 37.66 195.422 37.66ZM193.102 32.46C193.262 31.132 194.158 30.348 195.374 30.348C196.654 30.348 197.47 31.084 197.486 32.46H193.102ZM200.981 37.5H202.677V32.988C202.677 31.388 203.493 30.38 204.805 30.38C206.021 30.38 206.581 31.116 206.581 32.652V37.5H208.277V32.988C208.277 31.388 209.109 30.38 210.389 30.38C211.621 30.38 212.181 31.116 212.181 32.652V37.5H213.877V32.332C213.877 29.948 212.677 28.924 210.965 28.924C209.589 28.924 208.533 29.628 208.149 30.828H208.069C207.653 29.516 206.629 28.924 205.365 28.924C204.149 28.924 203.189 29.532 202.789 30.604H202.677L202.597 29.084H200.981V37.5ZM215.577 33.308C215.577 35.964 217.225 37.66 219.673 37.66C222.201 37.66 223.753 35.884 223.753 33.308C223.753 30.652 222.137 28.924 219.673 28.924C217.161 28.924 215.577 30.732 215.577 33.308ZM217.305 33.308C217.305 31.388 218.249 30.396 219.673 30.396C221.193 30.396 222.041 31.484 222.041 33.292C222.041 35.196 221.097 36.204 219.673 36.204C218.153 36.204 217.305 35.116 217.305 33.308Z" fill="white"/>
<path d="M256.97 21.9695L266 30.9999L256.97 40.0304" stroke="white" stroke-width="2" stroke-linecap="round"/>
<path d="M245 30.9998L266 30.9998" stroke="white" stroke-width="2" stroke-linecap="round"/>
</svg>
