<svg width="159" height="56" viewBox="0 0 159 56" fill="none" xmlns="http://www.w3.org/2000/svg">
<g clip-path="url(#clip0_771_168)">
<path d="M128.578 26.4458C128.624 23.0127 127.988 19.6046 126.707 16.4195C125.426 13.2343 123.525 10.3356 121.115 7.89159C118.705 5.44756 115.834 3.50694 112.669 2.1824C109.503 0.857854 106.107 0.175781 102.675 0.175781C99.2444 0.175781 95.8474 0.857854 92.6819 2.1824C89.5165 3.50694 86.6455 5.44756 84.2356 7.89159C81.8258 10.3356 79.9252 13.2343 78.6441 16.4195C77.3631 19.6046 76.7271 23.0127 76.7731 26.4458H80.2441C80.2013 23.4708 80.7498 20.517 81.8578 17.7561C82.9659 14.9952 84.6114 12.4822 86.6986 10.3633C88.7858 8.24432 91.2731 6.56171 94.0159 5.41323C96.7587 4.26475 99.7022 3.67332 102.675 3.67332C105.649 3.67332 108.592 4.26475 111.335 5.41323C114.078 6.56171 116.565 8.24432 118.652 10.3633C120.74 12.4822 122.385 14.9952 123.493 17.7561C124.601 20.517 125.15 23.4708 125.107 26.4458H128.578Z" fill="url(#paint0_linear_771_168)"/>
<path d="M20.3232 35.6165C19.1252 35.6173 17.9431 35.89 16.8657 36.4141C15.7884 36.9383 14.8439 37.7001 14.1032 38.6423C13.0832 37.36 11.691 36.4257 10.1184 35.968C8.54572 35.5103 6.86994 35.5517 5.32178 36.0865C3.77362 36.6213 2.42918 37.6232 1.47362 38.9543C0.518069 40.2854 -0.00162281 41.8802 -0.013916 43.519V55.4965H3.35462V43.3745C3.35754 42.1995 3.81459 41.0712 4.63002 40.2258C5.44545 39.3803 6.55608 38.8833 7.72943 38.8387C8.90278 38.7941 10.0479 39.2055 10.925 39.9866C11.8022 40.7677 12.3433 41.8581 12.4352 43.0295V55.4872H15.7759V43.0388C15.8501 41.855 16.3838 40.7471 17.2631 39.9516C18.1424 39.1561 19.2975 38.736 20.482 38.7811C21.6665 38.8261 22.7865 39.3327 23.6029 40.1926C24.4193 41.0526 24.8675 42.1978 24.8518 43.3838V55.5058H28.2437V43.519C28.2375 41.421 27.4003 39.411 25.9156 37.9297C24.4309 36.4483 22.4198 35.6164 20.3232 35.6165Z" fill="white"/>
<path d="M65.2276 36.0173C63.127 36.0173 61.1123 36.8524 59.627 38.3388C58.1416 39.8252 57.3071 41.8412 57.3071 43.9432V55.515H60.6803V43.878C60.6803 41.365 62.7723 39.3742 65.4 39.2996C66.6766 39.267 68.0837 39.3602 68.0837 39.3602L68.2701 36.1199C68.2701 36.1199 67.2404 36.022 65.2276 36.0173Z" fill="white"/>
<path d="M88.584 39.3742H95.2093V55.4964H98.5778V39.3742H105.161V36.1152H88.584V39.3742Z" fill="white"/>
<path d="M113.161 36.1199H109.792V55.501H113.161V36.1199Z" fill="white"/>
<path d="M68.6941 55.4966H72.3376L78.3944 39.766L84.4513 55.4966H88.0947C88.0947 55.4966 81.1759 38.1622 80.7892 37.2157C80.5877 36.7421 80.2515 36.3382 79.8224 36.0544C79.3932 35.7705 78.8902 35.6191 78.3758 35.6191C77.8614 35.6191 77.3583 35.7705 76.9292 36.0544C76.5001 36.3382 76.1639 36.7421 75.9624 37.2157L68.6941 55.4966Z" fill="white"/>
<path d="M117.172 36.1199H120.811L126.896 51.8504L132.953 36.1199H136.592C136.592 36.1199 129.677 53.4543 129.286 54.3961C129.086 54.8714 128.751 55.2771 128.321 55.5624C127.892 55.8477 127.388 55.9999 126.873 55.9999C126.357 55.9999 125.853 55.8477 125.424 55.5624C124.995 55.2771 124.659 54.8714 124.459 54.3961L117.172 36.1199Z" fill="white"/>
<path d="M158.056 45.8456C158.112 43.1812 157.149 40.5961 155.363 38.6191C154.496 37.6381 153.424 36.8605 152.222 36.3416C151.021 35.8226 149.72 35.575 148.412 35.6165C145.417 35.6165 142.977 36.5847 141.092 38.5211C140.157 39.4843 139.425 40.6257 138.939 41.8775C138.453 43.1293 138.224 44.466 138.264 45.8083C138.221 47.1586 138.455 48.5033 138.951 49.7598C139.447 51.0162 140.195 52.1578 141.148 53.1141C143.074 55.0381 145.573 56.0001 148.645 56.0001C152.195 56.0001 154.908 54.7226 156.784 52.1677L154.04 50.3634C152.869 52.0045 151.091 52.8251 148.705 52.8251C147.046 52.8784 145.417 52.3727 144.079 51.3891C142.804 50.3967 141.953 48.957 141.698 47.3609H157.926C158.005 46.8595 158.049 46.3532 158.056 45.8456ZM141.712 44.4143C141.914 42.8044 142.717 41.3304 143.959 40.2878C145.202 39.2451 146.792 38.7107 148.412 38.7916C149.895 38.7698 151.338 39.2791 152.479 40.2275C153.641 41.1818 154.363 42.5805 154.646 44.4236L141.712 44.4143Z" fill="white"/>
<path d="M52.5594 45.8455C52.618 43.1807 51.6543 40.5947 49.8665 38.6189C48.9999 37.6375 47.9275 36.8596 46.7259 36.3406C45.5243 35.8216 44.2231 35.5743 42.915 35.6164C39.9177 35.6164 37.4779 36.5846 35.5956 38.521C34.6604 39.4842 33.9282 40.6256 33.4424 41.8774C32.9566 43.1292 32.727 44.4659 32.7675 45.8082C32.7256 47.1583 32.9598 48.5028 33.4558 49.759C33.9517 51.0153 34.6989 52.157 35.6515 53.114C37.5742 55.038 40.073 56 43.148 56C46.6982 56 49.413 54.7225 51.2921 52.1676L48.5572 50.3633C47.3893 52.0044 45.6127 52.825 43.2272 52.825C41.5663 52.8793 39.9353 52.3736 38.596 51.389C37.321 50.3966 36.4701 48.9569 36.2152 47.3607H52.4429C52.5202 46.8594 52.5591 46.3528 52.5594 45.8455ZM36.1966 44.4142C36.4011 42.8052 37.2045 41.3325 38.4464 40.2903C39.6884 39.248 41.2774 38.7128 42.8964 38.7914C44.3802 38.7681 45.8232 39.2775 46.9638 40.2274C48.1224 41.1817 48.8461 42.5803 49.135 44.4235L36.1966 44.4142Z" fill="white"/>
</g>
<defs>
<linearGradient id="paint0_linear_771_168" x1="73.5509" y1="13.0842" x2="117.84" y2="-4.34363" gradientUnits="userSpaceOnUse">
<stop stop-color="#9900FF"/>
<stop offset="1" stop-color="#FA1E32"/>
</linearGradient>
<clipPath id="clip0_771_168">
<rect width="158.056" height="56" fill="white"/>
</clipPath>
</defs>
</svg>
