<svg width="124" height="124" viewBox="0 0 124 124" fill="none" xmlns="http://www.w3.org/2000/svg">
<circle cx="62" cy="62" r="62" fill="#9900FF"/>
<circle cx="62" cy="62" r="62" stroke="#9900FF"/>
<path d="M92.0593 60.7273L80.6347 51.3428C79.9821 50.8068 79 51.271 79 52.1155L79 70.8845C79 71.729 79.9821 72.1932 80.6347 71.6572L92.0593 62.2727C92.5463 61.8727 92.5463 61.1273 92.0593 60.7273Z" fill="white"/>
<path d="M32.548 69V56.436H37.948C39.112 56.436 40.012 56.778 40.648 57.462C41.284 58.146 41.602 59.064 41.602 60.216C41.602 61.368 41.284 62.286 40.648 62.97C40.012 63.654 39.112 63.996 37.948 63.996H34.582V69H32.548ZM34.582 62.214H37.822C38.338 62.214 38.74 62.082 39.028 61.818C39.316 61.542 39.46 61.152 39.46 60.648V59.784C39.46 59.28 39.316 58.896 39.028 58.632C38.74 58.356 38.338 58.218 37.822 58.218H34.582V62.214ZM45.6872 69C45.0152 69 44.5112 68.832 44.1752 68.496C43.8512 68.148 43.6892 67.668 43.6892 67.056V55.68H45.6512V67.398H46.9472V69H45.6872ZM55.68 69C55.164 69 54.768 68.856 54.492 68.568C54.216 68.268 54.048 67.89 53.988 67.434H53.898C53.718 68.022 53.388 68.466 52.908 68.766C52.428 69.066 51.846 69.216 51.162 69.216C50.19 69.216 49.44 68.964 48.912 68.46C48.396 67.956 48.138 67.278 48.138 66.426C48.138 65.49 48.474 64.788 49.146 64.32C49.83 63.852 50.826 63.618 52.134 63.618H53.826V62.826C53.826 62.25 53.67 61.806 53.358 61.494C53.046 61.182 52.56 61.026 51.9 61.026C51.348 61.026 50.898 61.146 50.55 61.386C50.202 61.626 49.908 61.932 49.668 62.304L48.498 61.242C48.81 60.714 49.248 60.282 49.812 59.946C50.376 59.598 51.114 59.424 52.026 59.424C53.238 59.424 54.168 59.706 54.816 60.27C55.464 60.834 55.788 61.644 55.788 62.7V67.398H56.778V69H55.68ZM51.72 67.722C52.332 67.722 52.836 67.59 53.232 67.326C53.628 67.05 53.826 66.684 53.826 66.228V64.878H52.17C50.814 64.878 50.136 65.298 50.136 66.138V66.462C50.136 66.882 50.274 67.2 50.55 67.416C50.838 67.62 51.228 67.722 51.72 67.722ZM64.3198 59.64H66.2098L62.2678 70.854C62.1598 71.166 62.0338 71.43 61.8898 71.646C61.7578 71.874 61.5958 72.054 61.4038 72.186C61.2238 72.33 61.0018 72.432 60.7378 72.492C60.4738 72.564 60.1618 72.6 59.8018 72.6H58.6678V70.998H60.2518L60.7918 69.414L57.3898 59.64H59.3518L61.2238 65.148L61.7638 67.182H61.8538L62.4478 65.148L64.3198 59.64Z" fill="white"/>
</svg>
