<?xml version="1.0" encoding="utf-8"?>
<!-- Generator: Adobe Illustrator 26.3.1, SVG Export Plug-In . SVG Version: 6.00 Build 0)  -->
<svg version="1.1" id="Layer_1" xmlns="http://www.w3.org/2000/svg" xmlns:xlink="http://www.w3.org/1999/xlink" x="0px" y="0px"
	 viewBox="0 0 33.7 22.7" style="enable-background:new 0 0 33.7 22.7;" xml:space="preserve">
<style type="text/css">
	.st0{fill:none;stroke:#20201F;stroke-width:2;stroke-linecap:round;stroke-linejoin:round;}
</style>
<path class="st0" d="M1,20.5V17C1,8.3,8,1,16.8,1c2.1,0,4.2,0.4,6.1,1.2c1.9,0.8,3.7,2,5.2,3.4c1.5,1.5,2.7,3.2,3.5,5.1
	c0.8,1.9,1.2,4,1.2,6.1v3.7c0,0.3-0.1,0.6-0.4,0.9c-0.2,0.2-0.5,0.4-0.9,0.4H2.2c-0.3,0-0.6-0.1-0.9-0.4C1.1,21.1,1,20.8,1,20.5z"/>
<path class="st0" d="M16.8,1v4.9"/>
<path class="st0" d="M1.5,12.7L6.3,14"/>
<path class="st0" d="M32.2,12.7L27.4,14"/>
<path class="st0" d="M13.1,21.7L23.5,8.1"/>
</svg>
