<?xml version="1.0" encoding="utf-8"?>
<!-- Generator: Adobe Illustrator 26.3.1, SVG Export Plug-In . SVG Version: 6.00 Build 0)  -->
<svg version="1.1" id="Layer_1" xmlns="http://www.w3.org/2000/svg" xmlns:xlink="http://www.w3.org/1999/xlink" x="0px" y="0px"
	 viewBox="0 0 25.4 25.4" style="enable-background:new 0 0 25.4 25.4;" xml:space="preserve">
<style type="text/css">
	.st0{fill:none;stroke:#20201F;stroke-width:2;stroke-linecap:round;stroke-linejoin:round;}
	.st1{fill:#20201F;}
</style>
<path class="st0" d="M8.2,12.6c-0.4-1-0.6-2.1-0.6-3.1c0-1.7,0.5-3.3,1.4-4.7s2.2-2.5,3.8-3.1C14.3,1,16,0.8,17.6,1.2
	c1.6,0.3,3.1,1.1,4.3,2.3s2,2.7,2.3,4.3c0.3,1.6,0.2,3.3-0.5,4.9c-0.6,1.5-1.7,2.9-3.1,3.8c-1.4,0.9-3,1.4-4.7,1.4
	c-1.1,0-2.1-0.2-3.1-0.6l-1.5,1.5H8.5v2.8H5.7v2.8H1v-4.7L8.2,12.6z"/>
<path class="st1" d="M18.3,8.5c0.8,0,1.4-0.6,1.4-1.4s-0.6-1.4-1.4-1.4c-0.8,0-1.4,0.6-1.4,1.4S17.6,8.5,18.3,8.5z"/>
</svg>
